<?xml version="1.0" encoding="UTF-8"?><svg id="Livello_2" xmlns="http://www.w3.org/2000/svg" viewBox="0 0 280.1 280.1"><defs><style>.cls-1{fill:#fff;}.cls-2{fill:#614595;}</style></defs><g id="Livello_1-2"><g><rect class="cls-2" width="280.1" height="280.1" rx="1.49" ry="1.49"/><g><path class="cls-1" d="M43.89,250.33H21.23v-108.61h62.25v18.87H43.89v28.01h36.85v18.79H43.89v42.94Z"/><path class="cls-1" d="M153.9,250.33h-22.95v-62.85l.22-10.33,.37-11.29c-3.81,3.81-6.46,6.31-7.95,7.5l-12.48,10.03-11.07-13.82,34.99-27.86h18.87v108.61Z"/><path class="cls-1" d="M255.67,166.01c0,6.79-2.05,12.56-6.16,17.31-4.11,4.75-9.88,8.02-17.31,9.81v.45c8.77,1.09,15.4,3.75,19.91,7.99,4.5,4.24,6.76,9.94,6.76,17.12,0,10.45-3.79,18.58-11.36,24.4-7.58,5.82-18.4,8.73-32.46,8.73-11.79,0-22.24-1.96-31.35-5.87v-19.54c4.21,2.13,8.84,3.86,13.89,5.2,5.05,1.34,10.05,2.01,15.01,2.01,7.58,0,13.17-1.29,16.79-3.86,3.61-2.57,5.42-6.71,5.42-12.41,0-5.1-2.08-8.72-6.24-10.84-4.16-2.13-10.8-3.19-19.91-3.19h-8.25v-17.61h8.39c8.42,0,14.57-1.1,18.46-3.31,3.89-2.2,5.83-5.98,5.83-11.33,0-8.22-5.15-12.33-15.45-12.33-3.57,0-7.19,.6-10.88,1.78-3.69,1.19-7.79,3.25-12.29,6.17l-10.62-15.82c9.9-7.13,21.72-10.7,35.43-10.7,11.24,0,20.12,2.28,26.63,6.83,6.51,4.56,9.77,10.89,9.77,19.02Z"/></g><g><path class="cls-1" d="M54.28,49.43c-5.62,0-9.97,2.11-13.06,6.34-3.08,4.22-4.63,10.11-4.63,17.66,0,15.71,5.89,23.56,17.68,23.56,4.95,0,10.94-1.24,17.97-3.71v12.53c-5.78,2.41-12.24,3.61-19.37,3.61-10.25,0-18.09-3.11-23.51-9.32-5.43-6.22-8.14-15.14-8.14-26.77,0-7.32,1.33-13.74,4-19.25,2.67-5.51,6.5-9.73,11.49-12.67,4.99-2.94,10.85-4.41,17.56-4.41s13.72,1.66,20.62,4.96l-4.82,12.14c-2.63-1.25-5.28-2.34-7.95-3.28-2.67-.93-5.28-1.4-7.85-1.4Z"/><path class="cls-1" d="M130.36,108.45l-5.11-16.77h-25.68l-5.11,16.77h-16.09l24.86-70.73h18.26l24.96,70.73h-16.09Zm-8.67-29.3c-4.72-15.19-7.38-23.79-7.97-25.78-.59-1.99-1.02-3.57-1.28-4.72-1.06,4.11-4.1,14.28-9.11,30.5h18.36Z"/><path class="cls-1" d="M203.99,59.98c0,7.58-2.37,13.38-7.11,17.39-4.74,4.02-11.48,6.02-20.21,6.02h-6.41v25.06h-14.94V38.01h22.5c8.54,0,15.04,1.84,19.49,5.52,4.45,3.68,6.67,9.16,6.67,16.45Zm-33.73,11.18h4.91c4.59,0,8.03-.91,10.31-2.72,2.28-1.81,3.42-4.46,3.42-7.93s-.96-6.09-2.87-7.76-4.91-2.51-8.99-2.51h-6.79v20.91Z"/><path class="cls-1" d="M258.87,88.89c0,6.36-2.29,11.37-6.87,15.03-4.58,3.66-10.95,5.49-19.1,5.49-7.52,0-14.17-1.41-19.95-4.24v-13.88c4.75,2.12,8.78,3.61,12.07,4.48,3.29,.87,6.3,1.3,9.04,1.3,3.28,0,5.79-.63,7.54-1.88s2.63-3.12,2.63-5.59c0-1.38-.39-2.61-1.16-3.69-.77-1.08-1.9-2.11-3.4-3.11-1.49-1-4.54-2.59-9.13-4.77-4.3-2.02-7.53-3.97-9.69-5.83-2.15-1.86-3.87-4.03-5.15-6.5-1.29-2.47-1.93-5.36-1.93-8.67,0-6.23,2.11-11.13,6.34-14.7,4.22-3.57,10.06-5.35,17.51-5.35,3.66,0,7.16,.43,10.48,1.3,3.33,.87,6.8,2.09,10.43,3.66l-4.82,11.61c-3.76-1.54-6.87-2.62-9.32-3.23-2.46-.61-4.87-.92-7.25-.92-2.83,0-5,.66-6.5,1.98-1.51,1.32-2.27,3.04-2.27,5.16,0,1.32,.31,2.47,.92,3.45,.61,.98,1.58,1.93,2.91,2.84,1.33,.92,4.49,2.56,9.47,4.94,6.58,3.15,11.1,6.3,13.54,9.47,2.44,3.16,3.66,7.04,3.66,11.64Z"/></g></g></g></svg>